<svg xmlns="http://www.w3.org/2000/svg" viewBox="0 0 394 72" role="img" aria-label="Khipu">
  <g transform="translate(4,4) scale(2)" fill="none" stroke="#d0392b" stroke-linecap="round">
    <path d="M3 7 H29" stroke-width="2.4"/>
    <path d="M9 7 C9 14, 8 20, 8.6 26" stroke-width="1.5"/>
    <path d="M16 7 C16 14, 16 21, 16 27.5" stroke-width="1.5"/>
    <path d="M23 7 C23 13, 24 20, 23.4 25" stroke-width="1.5"/>
    <ellipse cx="8.7" cy="14" rx="2.1" ry="1.5" fill="#d0392b" stroke="none" transform="rotate(-12 8.7 14)"/>
    <ellipse cx="16" cy="17.5" rx="2.2" ry="1.6" fill="#d0392b" stroke="none"/>
    <ellipse cx="23.4" cy="13" rx="2.1" ry="1.5" fill="#d0392b" stroke="none" transform="rotate(10 23.4 13)"/>
    <ellipse cx="16" cy="24" rx="1.8" ry="1.3" fill="#d0392b" stroke="none"/>
  </g>
  <path d="M113.54153846153847 33.52307692307693V30.593846153846155L143.72307692307692 50.0H124.26461538461538L98.63384615384615 32.215384615384615L122.27692307692308 16.52307692307693H140.89846153846153ZM85.66153846153846 16.52307692307693H98.73846153846154V50.0H85.66153846153846Z M166.4092307692308 28.083076923076923H203.23384615384617V38.02153846153846H166.4092307692308ZM201.76923076923077 16.52307692307693H214.84615384615387V50.0H201.76923076923077ZM155.21538461538464 16.52307692307693H168.2923076923077V50.0H155.21538461538464Z M228.95384615384614 16.52307692307693H242.03076923076924V50.0H228.95384615384614Z M268.27384615384614 41.36923076923077V32.215384615384615H294.37538461538463Q295.94461538461536 32.215384615384615 297.01692307692304 31.71846153846154Q298.08923076923077 31.22153846153846 298.08923076923077 29.600857503152586Q298.08923076923077 27.92615384615385 297.01692307692304 27.455384615384617Q295.94461538461536 26.984615384615385 294.37538461538463 26.984615384615385H269.1107692307692V50.0H256.0338461538461V16.52307692307693H292.3353846153846Q296.2775984990619 16.52307692307693 299.69418386491554 17.072307692307696Q303.1107692307692 17.621538461538464 305.67384615384617 19.033846153846156Q308.23692307692306 20.446153846153848 309.70153846153846 23.00923076923077Q311.16615384615386 25.572307692307692 311.16615384615386 29.6Q311.16615384615386 33.62769230769231 309.70153846153846 35.98153846153846Q308.23692307692306 38.33538461538461 305.67384615384617 39.48615384615384Q303.1107692307692 40.636923076923075 299.69418386491554 41.00307692307692Q296.2775984990619 41.36923076923077 292.3353846153846 41.36923076923077Z M370.72923076923075 30.907692307692308V16.52307692307693H383.80615384615385V33.261538461538464Q383.80615384615385 37.70769230769231 382.15846153846155 40.82000000000001Q380.5107692307692 43.932307692307695 377.58153846153846 45.94615384615385Q374.65230769230766 47.96 370.83384615384614 49.05846153846154Q367.0153846153846 50.15692307692308 362.6476923076923 50.60153846153846Q358.28 51.04615384615384 353.78153846153845 51.04615384615384Q349.02153846153846 51.04615384615384 344.57538461538456 50.60153846153846Q340.12923076923073 50.15692307692308 336.3369230769231 49.05846153846154Q332.5446153846154 47.96 329.72 45.94615384615385Q326.8953846153846 43.932307692307695 325.29999999999995 40.82000000000001Q323.70461538461535 37.70769230769231 323.70461538461535 33.261538461538464V16.52307692307693H336.78153846153845V30.907692307692308Q336.78153846153845 35.09230769230769 338.82153846153847 37.28923076923077Q340.86153846153843 39.48615384615385 344.65384615384613 40.29692307692308Q348.44615384615383 41.107692307692304 353.78153846153845 41.107692307692304Q358.96 41.107692307692304 362.77846153846156 40.29692307692308Q366.5969230769231 39.48615384615385 368.6630769230769 37.28923076923077Q370.72923076923075 35.09230769230769 370.72923076923075 30.907692307692308Z" fill="#f2efe8"/>
</svg>
